<svg xmlns="http://www.w3.org/2000/svg" version="1.1" xmlns:xlink="http://www.w3.org/1999/xlink" xmlns:svgjs="http://svgjs.dev/svgjs" width="1440" height="560" preserveAspectRatio="none" viewBox="0 0 1440 560"><g mask="url(&quot;#SvgjsMask1002&quot;)" fill="none"><rect width="1440" height="560" x="0" y="0" fill="#0e2a47"></rect><path d="M 0,133 C 57.6,159.8 172.8,285.8 288,267 C 403.2,248.2 460.8,62.4 576,39 C 691.2,15.6 748.8,141.4 864,150 C 979.2,158.6 1036.8,59.2 1152,82 C 1267.2,104.8 1382.4,227.6 1440,264L1440 560L0 560z" fill="#184a7e"></path><path d="M 0,466 C 96,431.8 288,278.4 480,295 C 672,311.6 768,542.6 960,549 C 1152,555.4 1344,371.4 1440,327L1440 560L0 560z" fill="#2264ab"></path></g><defs><mask id="SvgjsMask1002"><rect width="1440" height="560" fill="#ffffff"></rect></mask></defs></svg>